<?xml version="1.0" encoding="utf-8"?>
<!-- Generator: Adobe Illustrator 15.0.2, SVG Export Plug-In  -->
<!DOCTYPE svg PUBLIC "-//W3C//DTD SVG 1.1//EN" "http://www.w3.org/Graphics/SVG/1.1/DTD/svg11.dtd" [
	<!ENTITY ns_flows "http://ns.adobe.com/Flows/1.0/">
]>
<svg version="1.1"
	 xmlns="http://www.w3.org/2000/svg" xmlns:xlink="http://www.w3.org/1999/xlink" xmlns:a="http://ns.adobe.com/AdobeSVGViewerExtensions/3.0/"
	 x="0px" y="0px" width="200px" height="120px" viewBox="-16.675 2.958 200 120" enable-background="new -16.675 2.958 200 120"
	 xml:space="preserve">
<defs>
</defs>
<path fill="#010101" d="M71.192,99.871c-0.344-2.246-0.944-6.285-1.209-10.52V40.389c0-3.74-4.091-6.767-9.137-6.767L20.292,0
	c-5.047,0-9.139,1.831-9.139,5.569v91.713c0,0.151,0.019,0.301,0.032,0.451C8.005,98.818-3.717,103.44,1.18,111.211
	c0,0,2.118,4.025,11.586,2.386c0,0-3.5,6.538,8.588,5.941c0,0,6.981-0.104,9.141-4.153c0,0-3.232,6.806,5.86,7.01
	c0,0,10.44,0.773,23.152-5.815C59.507,116.58,72.802,110.315,71.192,99.871z"/>
<path fill="#010101" d="M94.739,99.871c0.344-2.246,0.943-6.285,1.209-10.52V40.389c0-3.74,4.092-6.767,9.137-6.767L145.641,0
	c5.045,0,9.135,1.831,9.135,5.569v91.713c0,0.151-0.014,0.301-0.028,0.451c3.179,1.085,14.897,5.707,10.006,13.479
	c0,0-2.117,4.025-11.588,2.386c0,0,3.499,6.538-8.587,5.941c0,0-6.98-0.104-9.143-4.153c0,0,3.234,6.806-5.859,7.01
	c0,0-10.443,0.773-23.152-5.815C106.424,116.58,93.125,110.315,94.739,99.871z"/>
</svg>
